<?xml version="1.0" encoding="UTF-8" standalone="no"?>
<!-- Created with Inkscape (http://www.inkscape.org/) -->

<svg
   width="191.54642mm"
   height="48.436096mm"
   viewBox="0 0 191.54642 48.436096"
   version="1.1"
   id="svg1"
   xml:space="preserve"
   inkscape:version="1.3.2 (091e20e, 2023-11-25)"
   sodipodi:docname="Simple.svg"
   xmlns:inkscape="http://www.inkscape.org/namespaces/inkscape"
   xmlns:sodipodi="http://sodipodi.sourceforge.net/DTD/sodipodi-0.dtd"
   xmlns="http://www.w3.org/2000/svg"
   xmlns:svg="http://www.w3.org/2000/svg"><sodipodi:namedview
     id="namedview1"
     pagecolor="#505050"
     bordercolor="#eeeeee"
     borderopacity="1"
     inkscape:showpageshadow="0"
     inkscape:pageopacity="0"
     inkscape:pagecheckerboard="0"
     inkscape:deskcolor="#d1d1d1"
     inkscape:document-units="mm"
     inkscape:zoom="0.4841217"
     inkscape:cx="324.29862"
     inkscape:cy="90.886238"
     inkscape:window-width="1512"
     inkscape:window-height="921"
     inkscape:window-x="0"
     inkscape:window-y="33"
     inkscape:window-maximized="0"
     inkscape:current-layer="layer1" /><defs
     id="defs1" /><g
     inkscape:label="Layer 1"
     inkscape:groupmode="layer"
     id="layer1"
     transform="translate(-236.97797,-33.196731)"><g
       style="color:#000000;fill:none;stroke-width:1.5"
       id="g1"
       transform="matrix(2.4704151,0,0,2.4704151,231.41954,27.638297)"><path
         d="M 3,19 V 5 C 3,3.89543 3.89543,3 5,3 h 11.1716 c 0.5304,0 1.0391,0.21071 1.4142,0.58579 l 2.8284,2.82842 C 20.7893,6.78929 21,7.29799 21,7.82843 V 19 c 0,1.1046 -0.8954,2 -2,2 H 5 C 3.89543,21 3,20.1046 3,19 Z"
         stroke="#000000"
         stroke-width="1.5"
         id="path1" /><path
         d="m 8.6,9 h 6.8 C 15.7314,9 16,8.73137 16,8.4 V 3.6 C 16,3.26863 15.7314,3 15.4,3 H 8.6 C 8.26863,3 8,3.26863 8,3.6 V 8.4 C 8,8.73137 8.26863,9 8.6,9 Z"
         stroke="#000000"
         stroke-width="1.5"
         id="path2" /><path
         d="M 6,13.6 V 21 H 18 V 13.6 C 18,13.2686 17.7314,13 17.4,13 H 6.6 C 6.26863,13 6,13.2686 6,13.6 Z"
         stroke="#000000"
         stroke-width="1.5"
         id="path3" /></g><text
       xml:space="preserve"
       style="font-weight:bold;font-size:35.469px;line-height:0.9;font-family:Quicksand;-inkscape-font-specification:'Quicksand Bold';letter-spacing:2.53825px;word-spacing:0px;fill:#000000;fill-opacity:1;stroke-width:10.5564;stroke-linecap:square;paint-order:stroke fill markers"
       x="295.66394"
       y="59.50563"
       id="text1"><tspan
         sodipodi:role="line"
         id="tspan1"
         style="font-style:normal;font-variant:normal;font-weight:bold;font-stretch:normal;font-family:Quicksand;-inkscape-font-specification:Quicksand;fill:#000000;fill-opacity:1;stroke-width:10.5564"
         x="295.66394"
         y="59.50563">SIMPLE</tspan></text><text
       xml:space="preserve"
       style="font-weight:bold;font-size:20.1609px;line-height:0.9;font-family:Quicksand;-inkscape-font-specification:'Quicksand Bold';letter-spacing:1.44277px;word-spacing:0px;fill:#000000;fill-opacity:1;stroke-width:6.00039;stroke-linecap:square;paint-order:stroke fill markers"
       x="296.3569"
       y="77.600647"
       id="text2"><tspan
         sodipodi:role="line"
         id="tspan2"
         style="font-style:normal;font-variant:normal;font-weight:normal;font-stretch:normal;font-family:Quicksand;-inkscape-font-specification:'Quicksand Bold';fill:#000000;fill-opacity:1;stroke-width:6.00039"
         x="296.3569"
         y="77.600647">Save System</tspan></text></g></svg>
